<?xml version="1.0" standalone="no"?><!DOCTYPE svg PUBLIC "-//W3C//DTD SVG 1.1//EN" "http://www.w3.org/Graphics/SVG/1.1/DTD/svg11.dtd"><svg t="1662743892094" class="icon" viewBox="0 0 1024 1024" version="1.1" xmlns="http://www.w3.org/2000/svg" p-id="2335" xmlns:xlink="http://www.w3.org/1999/xlink" width="200" height="200"><path d="M285.59 786.66l203.7-102.23-136.44-270.59-203.7 102.23c-55.61 28.3-78.13 96.05-50.55 152.02l34.2 68.03c28.33 56.04 96.63 78.64 152.79 50.54z" fill="#F2452F" p-id="2336"></path><path d="M489.29 684.43L352.85 413.84l16.34-8.36c33.53-16.9 61.3-43.34 79.81-76.01L588.86 83.96c9.97-18.47 33.02-25.36 51.49-15.39a38.013 38.013 0 0 1 15.39 15.39l277.43 552.2c9.35 18.79 1.7 41.6-17.09 50.95a37.98 37.98 0 0 1-20.91 3.77L614.7 656.31c-37.27-4.67-75.1 1.81-108.69 18.62l-16.72 9.5z" fill="#FF7F00" p-id="2337"></path><path d="M285.59 786.66l186.22 156.96c21.27 17.87 51.11 21.45 76.01 9.12 34.11-18.11 47.08-60.44 28.97-94.55a70.118 70.118 0 0 0-15.29-19.46L421.26 717.87l-135.67 68.79z" fill="#A51717" p-id="2338"></path><path d="M421.26 718.63l-135.68 68.41 14.06 11.78 136.05-68.41-14.43-11.78z" fill="#8C1313" p-id="2339"></path></svg>