<?xml version="1.0" standalone="no"?><!DOCTYPE svg PUBLIC "-//W3C//DTD SVG 1.1//EN" "http://www.w3.org/Graphics/SVG/1.1/DTD/svg11.dtd"><svg t="1665141964009" class="icon" viewBox="0 0 1024 1024" version="1.1" xmlns="http://www.w3.org/2000/svg" p-id="2544" xmlns:xlink="http://www.w3.org/1999/xlink" width="200" height="200"><path d="M-664.554667 249.408" p-id="2545"></path><path d="M-664.554667 249.408" p-id="2546"></path><path d="M958.186667 471.146667l-1.898667 3.797333 1.898667 0 0 77.845333c0 11.370667-1.898667 20.906667-5.717333 30.378667l-123.413333 284.778667C817.685333 896.426667 789.205333 917.333333 755.008 917.333333L390.485333 917.333333c-43.669333 0-81.664-37.994667-81.664-81.664L308.821333 431.296c0-22.805333 9.472-41.749333 24.661333-56.938667L599.317333 106.666667l43.669333 43.669333c11.392 11.370667 17.088 24.661333 17.088 41.749333l0 13.290667-39.850667 186.069333 256.298667 0c43.669333 0 81.664 36.096 81.664 79.744L958.186667 471.146667zM65.813333 917.333333 65.813333 431.296l163.264 0L229.077333 917.333333 65.813333 917.333333z" p-id="2547"></path></svg>